<svg width="336" height="93" viewBox="0 0 336 93" fill="none" xmlns="http://www.w3.org/2000/svg">
<path d="M297.985 70.1298H35.0583V13.4495H287.985C293.507 13.4495 297.985 17.9266 297.985 23.4495V35.0649L290.765 41.3093L297.985 51.8768V70.1298Z" fill="url(#paint0_linear_2514_6349)"/>
<g filter="url(#filter0_d_2514_6349)">
<path d="M62.7979 73.012L51.7039 84.5402L39.5006 73.012L22.8597 76.3744L20.6409 61.4838L4 55.2393L13.9845 41.7898L4 28.8205L20.6409 23.0564L22.8597 8.16582L39.5006 11.5282L50.5945 0L62.7979 11.5282L79.9935 8.16582L81.1028 23.0564L97.7438 28.8205L88.8686 41.7898L97.7438 55.2393L81.1028 61.4838L79.9935 76.3744L62.7979 73.012Z" fill="url(#paint1_linear_2514_6349)"/>
</g>
<path d="M33.3989 64.8464L50.0398 57.6412L68.8994 64.8464L65.0166 47.5541L78.3293 35.0652L59.4696 33.1438L50.0398 19.2139L41.7193 33.1438L22.8596 35.0652L35.6176 47.5541L33.3989 64.8464Z" fill="#F4FF54"/>
<path d="M105.248 48C105.546 48.0853 105.93 48.1493 106.4 48.192C106.869 48.2133 107.317 48.224 107.744 48.224C108.597 48.224 109.301 48.0533 109.856 47.712C110.432 47.3493 110.72 46.7947 110.72 46.048C110.72 45.344 110.485 44.8427 110.016 44.544C109.546 44.2453 108.832 44.096 107.872 44.096H105.248V48ZM105.248 40.192H107.584C108.501 40.192 109.162 40.0213 109.568 39.68C109.994 39.3387 110.208 38.8373 110.208 38.176C110.208 37.6 109.962 37.1413 109.472 36.8C109.002 36.4587 108.288 36.288 107.328 36.288C107.008 36.288 106.634 36.2987 106.208 36.32C105.802 36.3413 105.482 36.3733 105.248 36.416V40.192ZM107.328 52.512C106.965 52.512 106.538 52.5013 106.048 52.48C105.557 52.4587 105.045 52.416 104.512 52.352C104 52.288 103.488 52.2027 102.976 52.096C102.464 52.0107 101.994 51.8827 101.568 51.712C100.394 51.264 99.8078 50.4853 99.8078 49.376V34.432C99.8078 33.984 99.9251 33.6427 100.16 33.408C100.416 33.152 100.757 32.9493 101.184 32.8C101.909 32.544 102.816 32.3627 103.904 32.256C104.992 32.128 106.112 32.064 107.264 32.064C109.994 32.064 112.096 32.5227 113.568 33.44C115.04 34.3573 115.776 35.776 115.776 37.696C115.776 38.656 115.498 39.488 114.944 40.192C114.389 40.8747 113.642 41.376 112.704 41.696C113.77 41.9947 114.656 42.5387 115.36 43.328C116.085 44.1173 116.448 45.1093 116.448 46.304C116.448 48.416 115.658 49.984 114.08 51.008C112.522 52.0107 110.272 52.512 107.328 52.512ZM119.62 35.584C119.62 34.6667 119.887 33.9413 120.42 33.408C120.954 32.8747 121.679 32.608 122.596 32.608H133.156C133.306 32.8427 133.434 33.152 133.54 33.536C133.668 33.92 133.732 34.3253 133.732 34.752C133.732 35.5627 133.551 36.1387 133.188 36.48C132.847 36.8213 132.388 36.992 131.812 36.992H125.06V39.968H132.26C132.41 40.2027 132.538 40.512 132.644 40.896C132.772 41.2587 132.836 41.6533 132.836 42.08C132.836 42.8907 132.666 43.4667 132.324 43.808C131.983 44.1493 131.524 44.32 130.948 44.32H125.06V47.68H133.284C133.434 47.9147 133.562 48.224 133.668 48.608C133.796 48.992 133.86 49.3973 133.86 49.824C133.86 50.6347 133.679 51.2213 133.316 51.584C132.975 51.9253 132.516 52.096 131.94 52.096H122.596C121.679 52.096 120.954 51.8293 120.42 51.296C119.887 50.7627 119.62 50.0373 119.62 49.12V35.584ZM142.812 44.288C141.873 43.968 141.02 43.648 140.252 43.328C139.484 42.9867 138.822 42.5813 138.268 42.112C137.713 41.6427 137.276 41.088 136.956 40.448C136.657 39.7867 136.508 38.9867 136.508 38.048C136.508 36.2347 137.201 34.784 138.588 33.696C139.996 32.608 141.958 32.064 144.476 32.064C145.393 32.064 146.246 32.128 147.036 32.256C147.825 32.384 148.497 32.5867 149.052 32.864C149.628 33.12 150.076 33.4613 150.396 33.888C150.716 34.2933 150.876 34.7733 150.876 35.328C150.876 35.8827 150.748 36.3627 150.492 36.768C150.236 37.152 149.926 37.4827 149.564 37.76C149.094 37.4613 148.465 37.2053 147.676 36.992C146.886 36.7573 146.022 36.64 145.084 36.64C144.124 36.64 143.42 36.7787 142.972 37.056C142.524 37.312 142.3 37.6427 142.3 38.048C142.3 38.368 142.438 38.6347 142.716 38.848C142.993 39.04 143.409 39.2213 143.964 39.392L145.66 39.936C147.665 40.576 149.201 41.3973 150.268 42.4C151.356 43.3813 151.9 44.7253 151.9 46.432C151.9 48.2453 151.185 49.7173 149.756 50.848C148.326 51.9573 146.225 52.512 143.452 52.512C142.47 52.512 141.553 52.4267 140.7 52.256C139.868 52.1067 139.132 51.8827 138.492 51.584C137.873 51.264 137.382 50.88 137.02 50.432C136.678 49.9627 136.508 49.4293 136.508 48.832C136.508 48.2133 136.689 47.6907 137.052 47.264C137.414 46.816 137.809 46.4747 138.236 46.24C138.833 46.7093 139.558 47.1147 140.412 47.456C141.286 47.7973 142.236 47.968 143.26 47.968C144.305 47.968 145.041 47.808 145.468 47.488C145.894 47.168 146.108 46.7947 146.108 46.368C146.108 45.9413 145.937 45.6213 145.596 45.408C145.254 45.1733 144.774 44.9493 144.156 44.736L142.812 44.288ZM153.631 37.088C153.481 36.8533 153.343 36.5333 153.215 36.128C153.087 35.7227 153.023 35.296 153.023 34.848C153.023 34.016 153.204 33.4187 153.567 33.056C153.951 32.6933 154.441 32.512 155.039 32.512H168.991C169.14 32.7467 169.279 33.0667 169.407 33.472C169.535 33.8773 169.599 34.304 169.599 34.752C169.599 35.584 169.407 36.1813 169.023 36.544C168.66 36.9067 168.18 37.088 167.583 37.088H164.031V51.872C163.796 51.936 163.423 52 162.911 52.064C162.42 52.128 161.929 52.16 161.439 52.16C160.948 52.16 160.511 52.1173 160.127 52.032C159.764 51.968 159.455 51.84 159.199 51.648C158.943 51.456 158.751 51.1893 158.623 50.848C158.495 50.5067 158.431 50.0587 158.431 49.504V37.088H153.631ZM184.218 44.288C183.279 43.968 182.426 43.648 181.658 43.328C180.89 42.9867 180.229 42.5813 179.674 42.112C179.119 41.6427 178.682 41.088 178.362 40.448C178.063 39.7867 177.914 38.9867 177.914 38.048C177.914 36.2347 178.607 34.784 179.994 33.696C181.402 32.608 183.365 32.064 185.882 32.064C186.799 32.064 187.653 32.128 188.442 32.256C189.231 32.384 189.903 32.5867 190.458 32.864C191.034 33.12 191.482 33.4613 191.802 33.888C192.122 34.2933 192.282 34.7733 192.282 35.328C192.282 35.8827 192.154 36.3627 191.898 36.768C191.642 37.152 191.333 37.4827 190.97 37.76C190.501 37.4613 189.871 37.2053 189.082 36.992C188.293 36.7573 187.429 36.64 186.49 36.64C185.53 36.64 184.826 36.7787 184.378 37.056C183.93 37.312 183.706 37.6427 183.706 38.048C183.706 38.368 183.845 38.6347 184.122 38.848C184.399 39.04 184.815 39.2213 185.37 39.392L187.066 39.936C189.071 40.576 190.607 41.3973 191.674 42.4C192.762 43.3813 193.306 44.7253 193.306 46.432C193.306 48.2453 192.591 49.7173 191.162 50.848C189.733 51.9573 187.631 52.512 184.858 52.512C183.877 52.512 182.959 52.4267 182.106 52.256C181.274 52.1067 180.538 51.8827 179.898 51.584C179.279 51.264 178.789 50.88 178.426 50.432C178.085 49.9627 177.914 49.4293 177.914 48.832C177.914 48.2133 178.095 47.6907 178.458 47.264C178.821 46.816 179.215 46.4747 179.642 46.24C180.239 46.7093 180.965 47.1147 181.818 47.456C182.693 47.7973 183.642 47.968 184.666 47.968C185.711 47.968 186.447 47.808 186.874 47.488C187.301 47.168 187.514 46.7947 187.514 46.368C187.514 45.9413 187.343 45.6213 187.002 45.408C186.661 45.1733 186.181 44.9493 185.562 44.736L184.218 44.288ZM196.339 35.584C196.339 34.6667 196.606 33.9413 197.139 33.408C197.672 32.8747 198.398 32.608 199.315 32.608H209.875C210.024 32.8427 210.152 33.152 210.259 33.536C210.387 33.92 210.451 34.3253 210.451 34.752C210.451 35.5627 210.27 36.1387 209.907 36.48C209.566 36.8213 209.107 36.992 208.531 36.992H201.779V39.968H208.979C209.128 40.2027 209.256 40.512 209.363 40.896C209.491 41.2587 209.555 41.6533 209.555 42.08C209.555 42.8907 209.384 43.4667 209.043 43.808C208.702 44.1493 208.243 44.32 207.667 44.32H201.779V47.68H210.003C210.152 47.9147 210.28 48.224 210.387 48.608C210.515 48.992 210.579 49.3973 210.579 49.824C210.579 50.6347 210.398 51.2213 210.035 51.584C209.694 51.9253 209.235 52.096 208.659 52.096H199.315C198.398 52.096 197.672 51.8293 197.139 51.296C196.606 50.7627 196.339 50.0373 196.339 49.12V35.584ZM216.846 52.096C215.929 52.096 215.204 51.8293 214.67 51.296C214.137 50.7627 213.87 50.0373 213.87 49.12V32.576C214.105 32.5333 214.478 32.48 214.99 32.416C215.502 32.3307 215.993 32.288 216.462 32.288C216.953 32.288 217.38 32.3307 217.742 32.416C218.126 32.48 218.446 32.608 218.702 32.8C218.958 32.992 219.15 33.2587 219.278 33.6C219.406 33.9413 219.47 34.3893 219.47 34.944V47.584H226.798C226.948 47.8187 227.086 48.1387 227.214 48.544C227.342 48.928 227.406 49.3333 227.406 49.76C227.406 50.6133 227.225 51.2213 226.862 51.584C226.5 51.9253 226.02 52.096 225.422 52.096H216.846ZM233.253 52.096C232.335 52.096 231.61 51.8293 231.077 51.296C230.543 50.7627 230.277 50.0373 230.277 49.12V32.576C230.511 32.5333 230.885 32.48 231.397 32.416C231.909 32.3307 232.399 32.288 232.869 32.288C233.359 32.288 233.786 32.3307 234.149 32.416C234.533 32.48 234.853 32.608 235.109 32.8C235.365 32.992 235.557 33.2587 235.685 33.6C235.813 33.9413 235.877 34.3893 235.877 34.944V47.584H243.205C243.354 47.8187 243.493 48.1387 243.621 48.544C243.749 48.928 243.813 49.3333 243.813 49.76C243.813 50.6133 243.631 51.2213 243.269 51.584C242.906 51.9253 242.426 52.096 241.829 52.096H233.253ZM246.683 35.584C246.683 34.6667 246.949 33.9413 247.483 33.408C248.016 32.8747 248.741 32.608 249.659 32.608H260.219C260.368 32.8427 260.496 33.152 260.603 33.536C260.731 33.92 260.795 34.3253 260.795 34.752C260.795 35.5627 260.613 36.1387 260.251 36.48C259.909 36.8213 259.451 36.992 258.875 36.992H252.123V39.968H259.323C259.472 40.2027 259.6 40.512 259.707 40.896C259.835 41.2587 259.899 41.6533 259.899 42.08C259.899 42.8907 259.728 43.4667 259.387 43.808C259.045 44.1493 258.587 44.32 258.011 44.32H252.123V47.68H260.347C260.496 47.9147 260.624 48.224 260.731 48.608C260.859 48.992 260.923 49.3973 260.923 49.824C260.923 50.6347 260.741 51.2213 260.379 51.584C260.037 51.9253 259.579 52.096 259.003 52.096H249.659C248.741 52.096 248.016 51.8293 247.483 51.296C246.949 50.7627 246.683 50.0373 246.683 49.12V35.584ZM269.782 45.728V51.872C269.547 51.936 269.174 52 268.662 52.064C268.171 52.128 267.681 52.16 267.19 52.16C266.699 52.16 266.262 52.1173 265.878 52.032C265.515 51.968 265.206 51.84 264.95 51.648C264.715 51.456 264.534 51.1893 264.406 50.848C264.278 50.5067 264.214 50.0587 264.214 49.504V34.432C264.214 33.984 264.331 33.6427 264.566 33.408C264.822 33.152 265.163 32.9493 265.59 32.8C266.315 32.544 267.158 32.3627 268.118 32.256C269.078 32.128 270.102 32.064 271.19 32.064C274.134 32.064 276.353 32.6827 277.846 33.92C279.339 35.1573 280.086 36.832 280.086 38.944C280.086 40.2667 279.745 41.3973 279.062 42.336C278.379 43.2747 277.569 44 276.63 44.512C277.398 45.5573 278.155 46.5387 278.902 47.456C279.649 48.3733 280.235 49.2053 280.662 49.952C280.449 50.6987 280.054 51.2747 279.478 51.68C278.923 52.064 278.294 52.256 277.59 52.256C277.121 52.256 276.715 52.2027 276.374 52.096C276.033 51.9893 275.734 51.84 275.478 51.648C275.222 51.456 274.987 51.2213 274.774 50.944C274.561 50.6667 274.358 50.368 274.166 50.048L271.478 45.728H269.782ZM271.798 41.472C272.609 41.472 273.249 41.2693 273.718 40.864C274.187 40.4373 274.422 39.8187 274.422 39.008C274.422 38.1973 274.155 37.5893 273.622 37.184C273.11 36.7573 272.289 36.544 271.158 36.544C270.838 36.544 270.582 36.5547 270.39 36.576C270.198 36.5973 269.985 36.6293 269.75 36.672V41.472H271.798Z" fill="white"/>
<defs>
<filter id="filter0_d_2514_6349" x="0" y="0" width="101.744" height="92.5403" filterUnits="userSpaceOnUse" color-interpolation-filters="sRGB">
<feFlood flood-opacity="0" result="BackgroundImageFix"/>
<feColorMatrix in="SourceAlpha" type="matrix" values="0 0 0 0 0 0 0 0 0 0 0 0 0 0 0 0 0 0 127 0" result="hardAlpha"/>
<feOffset dy="4"/>
<feGaussianBlur stdDeviation="2"/>
<feComposite in2="hardAlpha" operator="out"/>
<feColorMatrix type="matrix" values="0 0 0 0 0 0 0 0 0 0 0 0 0 0 0 0 0 0 0.25 0"/>
<feBlend mode="normal" in2="BackgroundImageFix" result="effect1_dropShadow_2514_6349"/>
<feBlend mode="normal" in="SourceGraphic" in2="effect1_dropShadow_2514_6349" result="shape"/>
</filter>
<linearGradient id="paint0_linear_2514_6349" x1="75.5512" y1="24.9777" x2="387.842" y2="84.6597" gradientUnits="userSpaceOnUse">
<stop stop-color="#FF4607"/>
<stop offset="1" stop-color="#FFB87B"/>
</linearGradient>
<linearGradient id="paint1_linear_2514_6349" x1="50.8719" y1="0" x2="50.8719" y2="84.5402" gradientUnits="userSpaceOnUse">
<stop stop-color="#FF6D23"/>
<stop offset="1" stop-color="#FFC94B"/>
</linearGradient>
</defs>
</svg>
