<svg width="139" height="62" viewBox="0 0 139 62" fill="none" xmlns="http://www.w3.org/2000/svg">
<path d="M138.743 1.71433H11.1256C11.1256 1.71433 8.26339 1.43076 3.76305 5.7143C-0.8751 10.129 0.0818632 18.2858 0.0819092 27.2144C0.0819884 42.5806 0.0817815 61.7143 0.0817815 61.7143L17.261 48.8572L116.011 45.8494C120.104 45.7247 123.708 43.1167 125.106 39.2673L138.743 1.71433Z" fill="url(#paint0_linear_1303_6207)"/>
<path d="M53.5425 32.328C53.2439 32.6267 52.8065 32.8507 52.2305 33C51.6759 33.1707 51.0039 33.256 50.2145 33.256C49.4252 33.256 48.6785 33.1387 47.9745 32.904C47.2705 32.6693 46.6945 32.104 46.2465 31.208L43.0785 24.744C42.7585 24.0827 42.4705 23.464 42.2145 22.888C41.9585 22.2907 41.6812 21.608 41.3825 20.84L41.1905 20.872C41.2759 22.024 41.3185 23.1973 41.3185 24.392C41.3399 25.5867 41.3505 26.76 41.3505 27.912V32.872C41.1159 32.936 40.7532 33 40.2625 33.064C39.7932 33.128 39.3239 33.16 38.8545 33.16C38.3852 33.16 37.9692 33.128 37.6065 33.064C37.2439 33 36.9452 32.872 36.7105 32.68C36.4759 32.488 36.2945 32.232 36.1665 31.912C36.0385 31.5707 35.9745 31.1333 35.9745 30.6V14.6C36.2732 14.1733 36.7319 13.8533 37.3505 13.64C37.9692 13.4267 38.6305 13.32 39.3345 13.32C40.1239 13.32 40.8705 13.448 41.5745 13.704C42.2999 13.9387 42.8759 14.4933 43.3025 15.368L46.5025 21.832C46.8225 22.4933 47.1105 23.1227 47.3665 23.72C47.6225 24.296 47.8999 24.968 48.1985 25.736L48.3585 25.704C48.2732 24.552 48.2199 23.4 48.1985 22.248C48.1772 21.096 48.1665 19.944 48.1665 18.792V13.608C48.4012 13.544 48.7532 13.48 49.2225 13.416C49.7132 13.352 50.1932 13.32 50.6625 13.32C51.6012 13.32 52.3159 13.4907 52.8065 13.832C53.2972 14.152 53.5425 14.8347 53.5425 15.88V32.328ZM57.6933 16.584C57.6933 15.6667 57.9599 14.9413 58.4933 14.408C59.0266 13.8747 59.7519 13.608 60.6693 13.608H71.2293C71.3786 13.8427 71.5066 14.152 71.6133 14.536C71.7413 14.92 71.8053 15.3253 71.8053 15.752C71.8053 16.5627 71.6239 17.1387 71.2613 17.48C70.9199 17.8213 70.4613 17.992 69.8853 17.992H63.1333V20.968H70.3333C70.4826 21.2027 70.6106 21.512 70.7173 21.896C70.8453 22.2587 70.9093 22.6533 70.9093 23.08C70.9093 23.8907 70.7386 24.4667 70.3973 24.808C70.0559 25.1493 69.5973 25.32 69.0213 25.32H63.1333V28.68H71.3573C71.5066 28.9147 71.6346 29.224 71.7413 29.608C71.8693 29.992 71.9333 30.3973 71.9333 30.824C71.9333 31.6347 71.7519 32.2213 71.3893 32.584C71.0479 32.9253 70.5893 33.096 70.0133 33.096H60.6693C59.7519 33.096 59.0266 32.8293 58.4933 32.296C57.9599 31.7627 57.6933 31.0373 57.6933 30.12V16.584ZM84.1845 18.344C84.4192 18.2373 84.7819 18.12 85.2725 17.992C85.7845 17.8427 86.2965 17.768 86.8085 17.768C87.7045 17.768 88.4512 17.9067 89.0485 18.184C89.6459 18.44 90.0085 18.824 90.1365 19.336C90.3712 20.2107 90.5845 21.032 90.7765 21.8C90.9899 22.5467 91.1925 23.272 91.3845 23.976C91.5765 24.6587 91.7579 25.3413 91.9285 26.024C92.1205 26.7067 92.3019 27.4213 92.4725 28.168H92.6325C92.8245 26.8667 92.9952 25.6293 93.1445 24.456C93.2939 23.2613 93.4325 22.0987 93.5605 20.968C93.6885 19.816 93.8165 18.6853 93.9445 17.576C94.0725 16.4453 94.2005 15.304 94.3285 14.152C95.1179 13.704 95.9605 13.48 96.8565 13.48C97.6459 13.48 98.3285 13.6507 98.9045 13.992C99.4805 14.3333 99.7685 14.9093 99.7685 15.72C99.7685 16.1893 99.7152 16.8613 99.6085 17.736C99.5232 18.5893 99.3952 19.5493 99.2245 20.616C99.0752 21.6827 98.8939 22.8027 98.6805 23.976C98.4672 25.1493 98.2432 26.2693 98.0085 27.336C97.7739 28.4027 97.5285 29.3733 97.2725 30.248C97.0379 31.1013 96.8139 31.7627 96.6005 32.232C96.2805 32.5307 95.7579 32.776 95.0325 32.968C94.3072 33.16 93.5605 33.256 92.7925 33.256C91.7899 33.256 90.9365 33.128 90.2325 32.872C89.5499 32.5947 89.1339 32.2107 88.9845 31.72C88.7072 30.8667 88.4085 29.8533 88.0885 28.68C87.7685 27.5067 87.4272 26.216 87.0645 24.808C86.7659 26.1947 86.4565 27.5493 86.1365 28.872C85.8165 30.1947 85.5285 31.3147 85.2725 32.232C84.9525 32.5307 84.4725 32.776 83.8325 32.968C83.1925 33.16 82.4885 33.256 81.7205 33.256C80.7605 33.256 79.8859 33.128 79.0965 32.872C78.3285 32.5947 77.8272 32.2107 77.5925 31.72C77.4005 31.336 77.1872 30.7707 76.9525 30.024C76.7392 29.256 76.5152 28.392 76.2805 27.432C76.0459 26.4507 75.8005 25.3947 75.5445 24.264C75.3099 23.1333 75.0859 22.0027 74.8725 20.872C74.6805 19.7413 74.4992 18.6427 74.3285 17.576C74.1579 16.488 74.0299 15.496 73.9445 14.6C74.2432 14.3227 74.6592 14.0667 75.1925 13.832C75.7259 13.5973 76.3019 13.48 76.9205 13.48C77.7312 13.48 78.3925 13.6613 78.9045 14.024C79.4379 14.3653 79.7685 14.952 79.8965 15.784C80.2379 17.96 80.5152 19.7733 80.7285 21.224C80.9632 22.6747 81.1445 23.8693 81.2725 24.808C81.4219 25.7253 81.5285 26.44 81.5925 26.952C81.6565 27.464 81.7205 27.8693 81.7845 28.168H81.9445C82.1365 27.3147 82.3179 26.5253 82.4885 25.8C82.6592 25.0747 82.8299 24.3493 83.0005 23.624C83.1925 22.8773 83.3845 22.088 83.5765 21.256C83.7685 20.4027 83.9712 19.432 84.1845 18.344Z" fill="white"/>
<defs>
<linearGradient id="paint0_linear_1303_6207" x1="69.4124" y1="1.71436" x2="69.4124" y2="61.7144" gradientUnits="userSpaceOnUse">
<stop stop-color="#349C40"/>
<stop offset="1" stop-color="#54D763"/>
</linearGradient>
</defs>
</svg>
